<?xml version="1.0" encoding="UTF-8"?>
<svg version="1.1" xmlns="http://www.w3.org/2000/svg" width="700" height="398">
<path d="M0 0 C7.59843691 -0.07003094 15.19683964 -0.12307729 22.79552746 -0.15543652 C26.32530949 -0.17098059 29.85486802 -0.19200787 33.38452148 -0.22631836 C37.45819028 -0.26566158 41.53163056 -0.27980199 45.60546875 -0.29296875 C46.8507988 -0.30845261 48.09612885 -0.32393646 49.37919617 -0.33988953 C62.30652452 -0.34233003 73.94940784 1.34501433 83.58984375 10.51171875 C88.50196038 15.93640407 89.43245598 21.47913591 89.2421875 28.55078125 C88.53015413 35.75150581 84.16122338 41.2118771 79 46 C78.34 46 77.68 46 77 46 C77 46.66 77 47.32 77 48 C77.99 48.2784375 77.99 48.2784375 79 48.5625 C85.16333437 51.51576439 89.7343893 55.55641613 92.5 61.875 C95.13537272 69.6634676 94.72389541 76.1173474 91.3828125 83.640625 C87.05230389 91.0294024 80.00189181 94.70608019 72 97 C58.85939718 99.79855729 45.35581103 99.27143422 31.99755859 99.20581055 C28.08554711 99.18731346 24.17376982 99.18530295 20.26171875 99.18554688 C17.78124793 99.18063947 15.30077872 99.17481457 12.8203125 99.16796875 C11.06124069 99.16629951 11.06124069 99.16629951 9.26663208 99.16459656 C8.19396088 99.15821671 7.12128967 99.15183685 6.01611328 99.14526367 C4.59505783 99.13954597 4.59505783 99.13954597 3.14529419 99.13371277 C1 99 1 99 0 98 C-0.09530981 94.95597578 -0.12551639 91.93468292 -0.11352539 88.89038086 C-0.11367142 87.93438492 -0.11381744 86.97838898 -0.1139679 85.99342346 C-0.11326835 82.81720755 -0.10547403 79.64104948 -0.09765625 76.46484375 C-0.09579222 74.26908907 -0.09436825 72.07333398 -0.09336853 69.87757874 C-0.08954219 64.08579367 -0.07971091 58.2940335 -0.06866455 52.5022583 C-0.05845293 46.59721209 -0.05387145 40.69216187 -0.04882812 34.78710938 C-0.03808875 23.19139528 -0.02101093 11.59569971 0 0 Z M28 20 C28 26.27 28 32.54 28 39 C32.04207139 39.08108167 36.08250908 39.14054629 40.125 39.1875 C41.26710938 39.21263672 42.40921875 39.23777344 43.5859375 39.26367188 C51.72639385 39.39459478 51.72639385 39.39459478 59 36 C61.15741221 33.37358513 60.9990559 31.94713058 60.9375 28.5 C59.8201702 24.32863542 58.6167796 23.2389588 55 21 C51.8815675 19.9605225 49.72524414 19.88505162 46.45703125 19.90234375 C44.84731445 19.90717773 44.84731445 19.90717773 43.20507812 19.91210938 C42.08552734 19.92048828 40.96597656 19.92886719 39.8125 19.9375 C38.11577148 19.94426758 38.11577148 19.94426758 36.38476562 19.95117188 C33.58982124 19.96296489 30.79490401 19.98090043 28 20 Z M28 59 C27.90139869 60.40348735 27.86921063 61.81180477 27.8671875 63.21875 C27.86589844 64.06824219 27.86460937 64.91773438 27.86328125 65.79296875 C27.86714844 66.68628906 27.87101562 67.57960938 27.875 68.5 C27.87113281 69.39332031 27.86726563 70.28664063 27.86328125 71.20703125 C27.86457031 72.05652344 27.86585938 72.90601563 27.8671875 73.78125 C27.86831543 74.56564453 27.86944336 75.35003906 27.87060547 76.15820312 C27.79892558 78.01752988 27.79892558 78.01752988 29 79 C32.65935522 79.25531383 36.3328139 79.18524466 40 79.1875 C41.52560547 79.20586914 41.52560547 79.20586914 43.08203125 79.22460938 C53.82775156 79.31266032 53.82775156 79.31266032 63.5 75.25 C65.4296826 72.3554761 65.93029725 70.48513726 66 67 C64.8473264 63.84531436 63.96305141 61.72228856 61.25 59.6875 C54.36422453 57.58351305 47.252362 57.84833904 40.125 57.875 C39.06796875 57.87113281 38.0109375 57.86726563 36.921875 57.86328125 C35.91898437 57.86457031 34.91609375 57.86585938 33.8828125 57.8671875 C32.96902832 57.86831543 32.05524414 57.86944336 31.11376953 57.87060547 C29.01431456 57.76482514 29.01431456 57.76482514 28 59 Z " fill="#EC1A20" transform="translate(270,100)"/>
<path d="M0 0 C10.73857549 11.44237219 9.42274017 27.36073712 9.28125 41.9309082 C9.24970997 45.2177245 9.24023279 48.50406202 9.234375 51.79101562 C9.22521878 53.87500592 9.21484746 55.95899131 9.203125 58.04296875 C9.19887512 59.02823044 9.19462524 60.01349213 9.19024658 61.02861023 C9.18063904 61.93077774 9.17103149 62.83294525 9.16113281 63.76245117 C9.15430481 64.55898605 9.14747681 65.35552094 9.14044189 66.17619324 C9 68 9 68 8 69 C6.21928754 69.08726223 4.4351686 69.10699041 2.65234375 69.09765625 C1.57275391 69.09443359 0.49316406 69.09121094 -0.61914062 69.08789062 C-1.75544922 69.07951172 -2.89175781 69.07113281 -4.0625 69.0625 C-5.20267578 69.05798828 -6.34285156 69.05347656 -7.51757812 69.04882812 C-10.34510351 69.03699747 -13.1725264 69.0205141 -16 69 C-16.495 65.04 -16.495 65.04 -17 61 C-17.45890625 61.40992188 -17.9178125 61.81984375 -18.390625 62.2421875 C-19.00421875 62.78101563 -19.6178125 63.31984375 -20.25 63.875 C-20.85328125 64.40867187 -21.4565625 64.94234375 -22.078125 65.4921875 C-28.40921168 70.45925957 -36.24556611 70.63860044 -44 70 C-53.09441948 68.1811161 -59.50087714 64.48491722 -65 57 C-67.75691553 51.17770287 -68.15313842 44.88529025 -66.3125 38.68359375 C-63.55030684 32.61827793 -59.40886369 29.18330146 -53.4375 26.25 C-48.50528734 24.45646812 -44.05867566 23.86409226 -38.82421875 23.68359375 C-37.66728516 23.64169922 -36.51035156 23.59980469 -35.31835938 23.55664062 C-34.12017578 23.51732422 -32.92199219 23.47800781 -31.6875 23.4375 C-29.8612207 23.37272461 -29.8612207 23.37272461 -27.99804688 23.30664062 C-24.9988053 23.20078504 -21.99948409 23.09870274 -19 23 C-19.69297321 18.68499154 -20.62641794 16.86243327 -24 14 C-29.65080437 11.17459782 -40.02109198 12.15218659 -46.01953125 13.859375 C-48.09409538 14.80892674 -50.03250362 15.84998451 -52 17 C-52.99 17.33 -53.98 17.66 -55 18 C-57.97 12.39 -60.94 6.78 -64 1 C-49.09640371 -13.90359629 -15.83712382 -12.87295626 0 0 Z M-27.8125 37.1875 C-28.52470703 37.20619141 -29.23691406 37.22488281 -29.97070312 37.24414062 C-34.86144003 37.50202407 -37.61751852 38.4281518 -41 42 C-41.75 45 -41.75 45 -41 48 C-39.1329009 50.30275556 -37.64352259 51.67823871 -35 53 C-28.56010972 53.54575341 -25.3025644 52.71179508 -20 49 C-17.94074319 45.91111478 -17.7609626 45.29064073 -17.875 41.8125 C-17.91625 40.554375 -17.9575 39.29625 -18 38 C-21.14004599 36.42997701 -24.39097306 37.00774035 -27.8125 37.1875 Z " fill="#ED1A20" transform="translate(573,130)"/>
<path d="M0 0 C6.71778841 5.65167667 10.33984893 13.2943836 11.34533691 21.98471069 C11.45859075 25.1475879 11.45107558 28.2849555 11.390625 31.44921875 C11.38496521 32.58784866 11.37930542 33.72647858 11.37347412 34.89961243 C11.35128579 38.49602331 11.30112144 42.09139601 11.25 45.6875 C11.22991238 48.14256362 11.2116656 50.59764304 11.1953125 53.05273438 C11.15489958 59.03586699 11.07657151 65.01678706 11 71 C3.08 71 -4.84 71 -13 71 C-13.66 68.69 -14.32 66.38 -15 64 C-15.4846875 64.40992188 -15.969375 64.81984375 -16.46875 65.2421875 C-24.89101772 72.01239502 -32.72300293 72.86392899 -43.3203125 71.7578125 C-50.85117794 70.47205499 -57.36549356 66.63553087 -62.0625 60.5625 C-65.37130213 54.57898674 -64.89219913 47.58356619 -64 41 C-61.97414497 35.27438431 -58.40067354 31.75128652 -53 29 C-45.20176954 25.94179692 -37.68320547 25.47458874 -29.375 25.3125 C-28.18003906 25.27833984 -26.98507812 25.24417969 -25.75390625 25.20898438 C-22.83603149 25.12728388 -19.91842782 25.05788247 -17 25 C-16.5585348 20.90179578 -16.5585348 20.90179578 -19.375 18.3125 C-24.65213563 13.66359481 -31.12071409 14.39804355 -37.84619141 14.74707031 C-43.24117872 15.38062357 -48.13745635 17.66864346 -53 20 C-54.34070318 17.39939496 -55.67273354 14.79495084 -57 12.1875 C-57.3815625 11.44951172 -57.763125 10.71152344 -58.15625 9.95117188 C-58.5171875 9.23896484 -58.878125 8.52675781 -59.25 7.79296875 C-59.58515625 7.1383667 -59.9203125 6.48376465 -60.265625 5.80932617 C-61 4 -61 4 -61 1 C-42.82392795 -8.56038717 -17.95523749 -11.82933293 0 0 Z M-38 43 C-39.08805146 45.3566226 -39.08805146 45.3566226 -39 48 C-37.37844371 51.48634601 -36.23546708 52.84302194 -33 55 C-26.67652493 55.51831763 -22.47095046 54.80345999 -17.375 50.6875 C-15.61742405 48.53047497 -15.51184944 47.06352224 -15.3125 44.3125 C-15.24675781 43.50425781 -15.18101562 42.69601563 -15.11328125 41.86328125 C-15.07589844 41.24839844 -15.03851563 40.63351563 -15 40 C-18.08315385 39.91266487 -21.16598827 39.85949873 -24.25 39.8125 C-25.55904297 39.77479492 -25.55904297 39.77479492 -26.89453125 39.73632812 C-33.10032065 39.53476664 -33.10032065 39.53476664 -38 43 Z " fill="#ED191F" transform="translate(437,128)"/>
<path d="M0 0 C1.084021 0.00523682 2.16804199 0.01047363 3.28491211 0.01586914 C4.45473633 0.0190918 5.62456055 0.02231445 6.82983398 0.02563477 C8.0615332 0.03401367 9.29323242 0.04239258 10.56225586 0.05102539 C12.41560547 0.05779297 12.41560547 0.05779297 14.30639648 0.06469727 C17.37089703 0.07652931 20.43530307 0.09301366 23.49975586 0.11352539 C23.59276668 10.61494314 23.66367786 21.11626159 23.70700455 31.61800861 C23.7278077 36.49532518 23.75599125 41.37235826 23.80151367 46.24951172 C23.84523239 50.96335289 23.86894755 55.67692276 23.87926483 60.39095116 C23.88660977 62.18215386 23.90095182 63.97334307 23.92267609 65.76442909 C24.06001951 77.56587985 24.08133096 88.15283768 15.93725586 97.55102539 C7.61358448 104.97525243 -1.80344319 105.83061441 -12.50415039 105.45336914 C-17.22022522 105.15092882 -21.16679228 104.0044862 -25.50024414 102.11352539 C-24.86781745 97.38849838 -23.58210851 93.20782342 -21.93774414 88.73852539 C-21.7037793 88.09786133 -21.46981445 87.45719727 -21.22875977 86.79711914 C-20.65724795 85.23420929 -20.07940185 83.67361812 -19.50024414 82.11352539 C-18.51024414 82.44352539 -17.52024414 82.77352539 -16.50024414 83.11352539 C-14.31590704 83.34607565 -14.31590704 83.34607565 -12.00024414 83.36352539 C-11.22680664 83.38930664 -10.45336914 83.41508789 -9.65649414 83.44165039 C-6.93003729 83.02675478 -6.12555219 82.31363751 -4.50024414 80.11352539 C-3.21346615 76.41284139 -3.37343303 72.65815008 -3.40258789 68.79052734 C-3.40477829 67.69478394 -3.40477829 67.69478394 -3.40701294 66.5769043 C-3.41081112 64.99508803 -3.41691943 63.41327599 -3.42507935 61.83147621 C-3.43784783 59.33150506 -3.4443593 56.83158697 -3.44921875 54.33158875 C-3.46063983 49.02971043 -3.47989936 43.72787599 -3.50024414 38.42602539 C-3.5238049 32.27278654 -3.54419526 26.11957226 -3.55618286 19.96629906 C-3.56269034 17.49721864 -3.57519543 15.02821359 -3.58789062 12.55915833 C-3.59152087 11.05555285 -3.59487288 9.55194666 -3.59790039 8.04833984 C-3.60313721 6.73025833 -3.60837402 5.41217682 -3.61376953 4.05415344 C-3.46332652 0.15725484 -3.46332652 0.15725484 0 0 Z " fill="#EE181E" transform="translate(469.500244140625,121.886474609375)"/>
<path d="M0 0 C15.0130394 9.08683964 27.4304689 23.79285081 32.171875 40.859375 C36.4352205 59.45291844 30.8405437 77.25513008 21 93 C13.62035116 103.92079902 4.77581925 113.92379701 -4.125 123.625 C-8.20091825 128.0685248 -12.07373163 132.63293987 -15.8515625 137.33203125 C-17.22176651 139.0335755 -18.61068866 140.72032967 -20.0234375 142.38671875 C-32.346557 157.12088337 -38.91880838 172.18605722 -42 191 C-46.16190054 186.83809946 -45.27335218 180.67371418 -45.3125 175.125 C-45.3125 147.61416776 -28.79781199 125.97698443 -12.1171875 105.44140625 C10.93941552 77.38710241 10.93941552 77.38710241 17.90625 42.6640625 C16.44953967 29.25570604 9.39265885 17.18575394 2.6015625 5.79296875 C1 3 1 3 0 0 Z " fill="#F41A22" transform="translate(164,171)"/>
<path d="M0 0 C0.99 0.495 0.99 0.495 2 1 C7.18468884 20.28340412 1.12614232 38.87252635 -8.36328125 55.6484375 C-15.3684067 67.48846259 -24.02224162 78.13898509 -32.82324219 88.66918945 C-46.1577757 104.72988598 -60.86555302 123.34909209 -60 145.3125 C-58.30270278 159.90575655 -52.41957914 171.81369308 -44.95214844 184.26098633 C-44 186 -44 186 -43 189 C-47.75465597 186.83879274 -51.1835547 183.50020501 -55 180 C-55.59167969 179.48566406 -56.18335937 178.97132813 -56.79296875 178.44140625 C-65.88913031 170.09458523 -74.01396072 156.49070907 -75.19287109 143.94799805 C-75.63817186 131.86415449 -74.878811 122.22777039 -70 111 C-69.58878906 110.00097656 -69.17757812 109.00195312 -68.75390625 107.97265625 C-60.90713548 90.62593749 -46.4774968 76.13991524 -33.75 62.25 C-16.75687963 43.65947123 -3.94519814 25.1650017 0 0 Z " fill="#F31A22" transform="translate(102,44)"/>
<path d="M0 0 C0 7.92 0 15.84 0 24 C-2.784375 24.1546875 -2.784375 24.1546875 -5.625 24.3125 C-10.42522382 24.69742361 -13.82554336 25.47335519 -18 28 C-18.66 28 -19.32 28 -20 28 C-22.38688086 33.86835473 -22.38688086 33.86835473 -23.18945312 40.08837891 C-23.20617065 40.90577545 -23.22288818 41.723172 -23.2401123 42.56533813 C-23.25368774 43.44354218 -23.26726318 44.32174622 -23.28125 45.2265625 C-23.29965942 46.12998383 -23.31806885 47.03340515 -23.33703613 47.96420288 C-23.41578766 51.83343581 -23.48365292 55.70284132 -23.55224609 59.57226562 C-23.60382841 62.39462276 -23.6611179 65.21682349 -23.71875 68.0390625 C-23.73232544 68.921315 -23.74590088 69.8035675 -23.7598877 70.71255493 C-23.88715316 76.88715316 -23.88715316 76.88715316 -25 78 C-33.58 78 -42.16 78 -51 78 C-51 52.59 -51 27.18 -51 1 C-42.75 1 -34.5 1 -26 1 C-24.90341064 4.28976808 -25.20046862 5.71303767 -26 9 C-25.11248047 8.38511719 -25.11248047 8.38511719 -24.20703125 7.7578125 C-23.41683594 7.21898437 -22.62664063 6.68015625 -21.8125 6.125 C-20.64654297 5.32449219 -20.64654297 5.32449219 -19.45703125 4.5078125 C-13.12584199 0.62253578 -7.36883817 0 0 0 Z " fill="#EF1B21" transform="translate(650,121)"/>
<path d="M0 0 C2 1 2 1 2.66796875 2.79296875 C6.60943052 20.95925494 0.21850753 37.16371748 -9.45703125 52.2890625 C-13.39545676 58.18197623 -17.93677845 63.601037 -22.4296875 69.07324219 C-35.07546162 84.5894812 -45.41213426 98.7388218 -44.27832031 119.56347656 C-43.23192671 128.72401004 -38.64183438 137.70498406 -33.78515625 145.3984375 C-33.52605469 145.92695313 -33.26695313 146.45546875 -33 147 C-33.33 147.66 -33.66 148.32 -34 149 C-46.11710324 140.02436797 -56.52699708 130.29425697 -60 115 C-62.22643826 95.76552968 -55.13224554 81.1212807 -43.83984375 66.1328125 C-39.3474435 60.50712072 -34.49082163 55.24375394 -29.59155273 49.97631836 C-15.82379438 35.14125801 -3.94961614 20.40635005 0 0 Z " fill="#F41B22" transform="translate(118,76)"/>
<path d="M0 0 C11.92050072 4.03724623 19.65149201 15.85201797 25.01953125 26.60546875 C28.80921961 35.86076344 28.38230289 49.39433652 24.96875 58.75 C24.48921875 59.86375 24.48921875 59.86375 24 61 C23.6596875 61.804375 23.319375 62.60875 22.96875 63.4375 C16.30380699 77.84818759 4.77331593 89.95328113 -6 101.4375 C-18.9312609 115.32368478 -29.32579896 128.89415459 -33 148 C-35 147 -35 147 -35.61010742 145.1953125 C-37.57778951 134.11616578 -36.76669504 122.18339395 -32 112 C-31.46375 110.845 -30.9275 109.69 -30.375 108.5 C-24.75576808 97.0151184 -16.95620387 87.22450985 -9.03125 77.265625 C6.88385332 57.6964946 6.88385332 57.6964946 12.375 33.7265625 C10.73489609 21.80164034 5.31513126 10.66089729 0 0 Z " fill="#F41B22" transform="translate(139,181)"/>
<path d="M0 0 C2.88898721 2.63777093 3.88797626 4.58462314 4.203125 8.56640625 C4.48062601 26.30334559 -4.1455503 38.98861258 -14.85546875 52.38305664 C-22.14864074 61.56141142 -28.44844604 70.21492731 -28.43359375 82.3046875 C-27.58352597 89.54940928 -24.68345395 96.25941925 -22 103 C-29.37898229 101.31389584 -34.52418924 96.07827364 -38.75 89.9921875 C-43.90945474 81.76930651 -44.98181819 73.34862163 -42.9375 63.9375 C-39.13965894 50.72169433 -29.55540642 40.31040172 -19.90234375 30.88671875 C-10.78431326 21.84357968 -3.78480759 12.36527202 0 0 Z " fill="#F31B22" transform="translate(128,119)"/>
<path d="M0 0 C9.5049616 3.16832053 14.984287 9.69650472 19.8125 18.1875 C23.59072849 27.1359359 22.50249351 36.14388522 19 45 C15.14885687 53.75721986 9.5645241 60.14138522 3 67 C1.82403318 68.32513808 0.65637455 69.65773073 -0.5 71 C-2.43124137 73.24170097 -4.39467676 75.41235828 -6.44140625 77.55078125 C-13.58016512 85.07254358 -19.25682194 92.85024118 -22 103 C-22.66 103 -23.32 103 -24 103 C-27.11420829 93.65737512 -26.18095501 80.82017579 -21.875 72.0859375 C-16.21000481 62.76229958 -9.61376212 54.09890039 -3 45.4375 C3.60225071 36.73018384 7.03730746 29.03695136 6 18 C4.93409474 13.88792946 3.50407937 9.96879338 2 6 C1.32566477 4.00257254 0.65689408 2.00323104 0 0 Z " fill="#F41B22" transform="translate(118,183)"/>
<path d="M0 0 C3.2771577 2.87750432 5.21687235 4.94581568 5.87890625 9.359375 C6.08616058 13.3440066 5.72637715 15.88810462 4.0625 19.5625 C0.03042106 23.89698486 -4.45242911 26.39655093 -10.4375 26.75 C-16.19769937 26.42116972 -20.62317301 23.79217794 -24.9375 20.125 C-27.17379349 15.83877082 -27.18851256 11.98365495 -26.4375 7.25 C-24.23805327 2.76964556 -21.93618182 0.38687386 -17.4375 -1.75 C-11.51671136 -3.62366729 -5.46171616 -2.78051005 0 0 Z " fill="#F1191F" transform="translate(490.4375,87.75)"/>
<path d="M0 0 C4.22049146 0.4649694 5.18462922 1.81531981 7.8515625 5.04296875 C8.95371094 6.34814453 8.95371094 6.34814453 10.078125 7.6796875 C12.13056428 10.23590733 14.17867085 12.79560418 16.2265625 15.35546875 C16.5565625 10.73546875 16.8865625 6.11546875 17.2265625 1.35546875 C19.8665625 1.35546875 22.5065625 1.35546875 25.2265625 1.35546875 C25.2265625 11.25546875 25.2265625 21.15546875 25.2265625 31.35546875 C18.2265625 31.35546875 18.2265625 31.35546875 15.6796875 29.30859375 C14.95265625 28.4165625 14.225625 27.52453125 13.4765625 26.60546875 C12.37054688 25.28289062 12.37054688 25.28289062 11.2421875 23.93359375 C9.54385755 21.76131126 7.88098956 19.5613715 6.2265625 17.35546875 C5.8965625 21.97546875 5.5665625 26.59546875 5.2265625 31.35546875 C2.2565625 31.35546875 -0.7134375 31.35546875 -3.7734375 31.35546875 C-3.79809372 27.10132252 -3.81627649 22.84721377 -3.82836914 18.59301758 C-3.83340851 17.14476802 -3.84024003 15.69652358 -3.84887695 14.24829102 C-3.86095997 12.17072287 -3.86666961 10.09322178 -3.87109375 8.015625 C-3.87633057 6.76402588 -3.88156738 5.51242676 -3.88696289 4.22290039 C-3.73874452 0.4791912 -3.73874452 0.4791912 0 0 Z " fill="#7C787A" transform="translate(403.7734375,246.64453125)"/>
<path d="M0 0 C7 0 7 0 8.77270508 1.16162109 C9.18415771 1.69352051 9.59561035 2.22541992 10.01953125 2.7734375 C10.48423828 3.3509375 10.94894531 3.9284375 11.42773438 4.5234375 C11.88470703 5.13445312 12.34167969 5.74546875 12.8125 6.375 C13.75634075 7.57044647 14.70034444 8.76576433 15.64453125 9.9609375 C16.42183594 10.96382813 17.19914062 11.96671875 18 13 C18.66 13.66 19.32 14.32 20 15 C20.33 10.38 20.66 5.76 21 1 C24 0 24 0 29 1 C29 10.9 29 20.8 29 31 C21 31 21 31 19.08203125 29.83837891 C18.45361328 29.04052979 18.45361328 29.04052979 17.8125 28.2265625 C17.10673828 27.3603125 17.10673828 27.3603125 16.38671875 26.4765625 C15.92910156 25.86554688 15.47148437 25.25453125 15 24.625 C14.51144531 24.02171875 14.02289063 23.4184375 13.51953125 22.796875 C10 18.36049107 10 18.36049107 10 16 C9.34 16 8.68 16 8 16 C8 20.95 8 25.9 8 31 C5.36 31 2.72 31 0 31 C0 20.77 0 10.54 0 0 Z " fill="#7A777C" transform="translate(291,247)"/>
<path d="M0 0 C4.01251418 2.70611422 7.13279662 5.14838987 8.6875 9.8125 C9.20603818 14.7513636 9.23949525 18.66604834 7.0625 23.1875 C2.29350174 28.45849808 -1.83470971 30.47818783 -8.8515625 30.91015625 C-13.97854346 30.70670462 -17.29160633 28.67458799 -21.125 25.4375 C-24.20193965 21.74517242 -25.15838024 19.19957788 -25.6875 14.4375 C-25.09889171 8.74761982 -22.91053543 5.29360601 -18.75 1.4375 C-13.1340005 -2.30649966 -6.22285653 -2.23083536 0 0 Z M-14.1875 7.8125 C-17.12398802 11.95813015 -17.0277453 13.80578289 -16.3125 18.8125 C-14.26944308 21.87708538 -12.87170198 22.63403128 -9.375 23.75 C-5.57863701 23.8274768 -4.15088677 23.33551046 -1.3125 20.8125 C0.2277467 17.19626861 0.94021313 14.92443778 0.0625 11.0625 C-1.52015522 8.47270055 -2.62234109 7.23230609 -5.3125 5.8125 C-9.33945637 5.12706062 -10.80986169 5.46283857 -14.1875 7.8125 Z " fill="#7B7879" transform="translate(266.3125,248.1875)"/>
<path d="M0 0 C3.77060237 2.20587872 5.84318155 4.29166604 7.625 8.375 C8.38406957 13.68058003 8.30642075 17.93353303 6 22.8125 C1.18442997 28.00824662 -2.90999725 30.04147506 -9.9140625 30.47265625 C-15.01531149 30.27022573 -18.33253647 28.23213668 -22.1875 25.0625 C-25.49606647 20.99768976 -26.64569706 17.5685239 -26.25 12.375 C-25.30377332 6.74065024 -22.78102392 3.44357818 -18.25 0 C-12.38511279 -2.98895751 -5.93342917 -2.62971349 0 0 Z M-15.25 7.4375 C-17.62540832 10.25709505 -17.62540832 10.25709505 -17.9375 13.875 C-17.27454133 18.00007614 -16.52174823 19.63168103 -13.375 22.375 C-9.29153067 23.63716325 -7.3476941 23.86134705 -3.5 21.9375 C-1.04905562 18.98194942 -0.43141163 17.11477983 -0.1640625 13.34375 C-0.50633839 10.14917502 -2.10123877 8.51883202 -4.375 6.375 C-8.55345339 4.28577331 -11.51622077 4.75891925 -15.25 7.4375 Z " fill="#797779" transform="translate(620.375,248.625)"/>
<path d="M0 0 C2.97 0.33 5.94 0.66 9 1 C9 4.3 9 7.6 9 11 C12.96 11.33 16.92 11.66 21 12 C20.67 8.37 20.34 4.74 20 1 C22 0 22 0 29 1 C29 10.9 29 20.8 29 31 C26.03 31 23.06 31 20 31 C20 27.37 20 23.74 20 20 C16.37 20 12.74 20 9 20 C8.67 23.63 8.34 27.26 8 31 C5.36 31 2.72 31 0 31 C0 20.77 0 10.54 0 0 Z " fill="#797779" transform="translate(550,247)"/>
<path d="M0 0 C3.17625 -0.0825 6.3525 -0.165 9.625 -0.25 C10.6145166 -0.28641602 11.6040332 -0.32283203 12.62353516 -0.36035156 C18.41877255 -0.43298239 21.590511 0.1549256 26 4 C27.91303463 7.0774905 28.00253398 8.85809708 27.9375 12.5 C26.8177994 16.68021557 25.33213164 18.3025601 22 21 C18.98509443 22.00496852 16.95818308 22.10335303 13.8125 22.0625 C12.91144531 22.05347656 12.01039063 22.04445313 11.08203125 22.03515625 C10.39496094 22.02355469 9.70789063 22.01195312 9 22 C9 24.64 9 27.28 9 30 C6.03 30 3.06 30 0 30 C0 20.1 0 10.2 0 0 Z M9 6 C9 8.97 9 11.94 9 15 C13.0100934 15.17864631 13.0100934 15.17864631 17 15 C17.66 14.34 18.32 13.68 19 13 C18.67801034 9.90073181 18.67801034 9.90073181 18 7 C15.03 6.67 12.06 6.34 9 6 Z " fill="#79797B" transform="translate(644,248)"/>
<path d="M0 0 C1.40378906 -0.02126953 1.40378906 -0.02126953 2.8359375 -0.04296875 C5.78618154 0.20081892 7.94864112 0.95637492 10.625 2.1875 C10.25 5.125 10.25 5.125 9.625 8.1875 C7.02104377 9.48947811 5.97327143 8.94987361 3.1875 8.25 C0.49494238 7.58018748 -1.57722173 7.1875 -4.375 7.1875 C-4.37451164 9.15820417 -4.37451164 9.15820417 -3.375 11.1875 C-0.46789931 12.41450403 -0.46789931 12.41450403 3 13.1875 C9.14915564 14.71456304 9.14915564 14.71456304 11.54296875 17.09375 C13.25055578 20.39796173 12.56534984 22.67686061 11.625 26.1875 C9.11560648 29.50348429 6.62050412 31.09781706 2.625 32.1875 C-3.59010911 32.69693517 -7.66314016 31.63543993 -13.375 29.1875 C-12.625 24.4375 -12.625 24.4375 -10.375 22.1875 C-9.715 22.5175 -9.055 22.8475 -8.375 23.1875 C-4.51438967 24.47437011 -1.43349717 24.32507618 2.625 24.1875 C2.625 23.1975 2.625 22.2075 2.625 21.1875 C1.72136719 20.94515625 0.81773437 20.7028125 -0.11328125 20.453125 C-1.88251953 19.95039063 -1.88251953 19.95039063 -3.6875 19.4375 C-4.85925781 19.11265625 -6.03101563 18.7878125 -7.23828125 18.453125 C-10.56382664 17.11131092 -11.70222727 16.30413972 -13.375 13.1875 C-13.875 9.75 -13.875 9.75 -13.375 6.1875 C-9.35371143 1.18806015 -6.24904607 0.04280169 0 0 Z " fill="#7A797B" transform="translate(522.375,246.8125)"/>
<path d="M0 0 C7.92 0 15.84 0 24 0 C24 1.65 24 3.3 24 5 C23 6 23 6 19.62109375 6.09765625 C18.22652923 6.09098369 16.83198257 6.07902532 15.4375 6.0625 C14.72658203 6.05798828 14.01566406 6.05347656 13.28320312 6.04882812 C11.52209987 6.03700864 9.76103964 6.01907263 8 6 C8 7.65 8 9.3 8 11 C14.93 11.495 14.93 11.495 22 12 C22 13.98 22 15.96 22 18 C17.38 18 12.76 18 8 18 C8.33 19.65 8.66 21.3 9 23 C13.95 23.33 18.9 23.66 24 24 C24 25.98 24 27.96 24 30 C16.08 30 8.16 30 0 30 C0 20.1 0 10.2 0 0 Z " fill="#767779" transform="translate(447,248)"/>
<path d="M0 0 C2.64 0.33 5.28 0.66 8 1 C8 8.92 8 16.84 8 25 C12.62 25 17.24 25 22 25 C22 26.98 22 28.96 22 31 C14.41 31 6.82 31 -1 31 C-1.0229132 26.74578286 -1.04283889 22.49177843 -1.05493164 18.23754883 C-1.05997101 16.78929927 -1.06680253 15.34105483 -1.07543945 13.89282227 C-1.08752247 11.81525412 -1.09323211 9.73775303 -1.09765625 7.66015625 C-1.10289307 6.40855713 -1.10812988 5.15695801 -1.11352539 3.86743164 C-1 1 -1 1 0 0 Z " fill="#7A797D" transform="translate(338,247)"/>
<path d="M0 0 C2.64 0.33 5.28 0.66 8 1 C8 10.9 8 20.8 8 31 C5.36 31 2.72 31 0 31 C0 20.77 0 10.54 0 0 Z " fill="#77767B" transform="translate(375,247)"/>
<path d="M0 0 C0.33 0 0.66 0 1 0 C1.04898438 1.14339844 1.09796875 2.28679687 1.1484375 3.46484375 C1.22345189 4.95575473 1.29900028 6.44663892 1.375 7.9375 C1.4059375 8.69224609 1.436875 9.44699219 1.46875 10.22460938 C1.5726315 12.15507395 1.77895614 14.07942081 2 16 C2.66 16.33 3.32 16.66 4 17 C3.67 20.3 3.34 23.6 3 27 C0.32870333 24.32870333 0.06358182 22.3339876 -0.11352539 18.61816406 C-0.10828857 17.75932617 -0.10305176 16.90048828 -0.09765625 16.015625 C-0.09443359 15.08105469 -0.09121094 14.14648438 -0.08789062 13.18359375 C-0.07951172 12.21550781 -0.07113281 11.24742187 -0.0625 10.25 C-0.05798828 9.26644531 -0.05347656 8.28289062 -0.04882812 7.26953125 C-0.03706483 4.84629209 -0.02062684 2.42317727 0 0 Z " fill="#F93738" transform="translate(119,335)"/>
<path d="M0 0 C3.98414752 3.85562663 5.16827938 5.69371094 5.3125 11.25 C5.29177466 16.50732742 4.40983445 19.05737892 1 23 C0.67 22.01 0.34 21.02 0 20 C0.66 20 1.32 20 2 20 C2.05425226 17.60385874 2.09379027 15.20896147 2.125 12.8125 C2.14175781 12.13896484 2.15851562 11.46542969 2.17578125 10.77148438 C2.21538674 6.71192193 1.80020002 3.65001185 0 0 Z " fill="#717F99" transform="translate(623,251)"/>
<path d="M0 0 C0.66 0.33 1.32 0.66 2 1 C1.57847656 1.39832031 1.15695312 1.79664063 0.72265625 2.20703125 C0.17480469 2.73683594 -0.37304688 3.26664063 -0.9375 3.8125 C-1.48277344 4.33457031 -2.02804687 4.85664063 -2.58984375 5.39453125 C-5.45639574 8.6581126 -5.10687214 12.06089079 -5.0625 16.1875 C-5.05347656 17.27417969 -5.04445313 18.36085938 -5.03515625 19.48046875 C-5.02355469 20.31191406 -5.01195312 21.14335937 -5 22 C-7.71159769 19.28840231 -7.75460489 17.1845608 -8.09765625 13.453125 C-7.93510235 9.36977097 -6.3523515 6.28557947 -4 3 C-1.75 1 -1.75 1 0 0 Z " fill="#957F6D" transform="translate(602,249)"/>
<path d="M0 0 C0.66 0.33 1.32 0.66 2 1 C2.59355614 3.64860427 2.74209269 6.29197322 3 9 C2.34 8.34 1.68 7.68 1 7 C0.01 10.3 -0.98 13.6 -2 17 C-2.66 17 -3.32 17 -4 17 C-2.68 11.39 -1.36 5.78 0 0 Z " fill="#FC3137" transform="translate(118,76)"/>
<path d="M0 0 C7 8.44827586 7 8.44827586 7 12 C4.50638429 10.79618552 2.31856917 9.54571278 0 8 C-0.40843923 5.28796348 -0.13336867 2.7562858 0 0 Z " fill="#FE3131" transform="translate(52,221)"/>
<path d="M0 0 C0.66 0.33 1.32 0.66 2 1 C2.59355614 3.64860427 2.74209269 6.29197322 3 9 C1.68 9.33 0.36 9.66 -1 10 C-0.67 6.7 -0.34 3.4 0 0 Z " fill="#FC3F41" transform="translate(102,44)"/>
<path d="M0 0 C0.8723412 2.99480917 1.10829766 5.63575911 1.0625 8.75 C1.05347656 9.54921875 1.04445313 10.3484375 1.03515625 11.171875 C1.01775391 12.07679688 1.01775391 12.07679688 1 13 C-1.6843999 10.67682541 -1.97569899 10.27217137 -2.3125 6.5 C-2 3 -2 3 0 0 Z " fill="#9C7A68" transform="translate(511,250)"/>
<path d="M0 0 C0.99 0.99 1.98 1.98 3 3 C3 3.99 3 4.98 3 6 C0.5 7.6875 0.5 7.6875 -2 9 C-1.34 6.03 -0.68 3.06 0 0 Z " fill="#FD3131" transform="translate(128,119)"/>
<path d="M0 0 C3 1.8125 3 1.8125 6 4 C6 4.99 6 5.98 6 7 C5.01 7.495 5.01 7.495 4 8 C0 2.25 0 2.25 0 0 Z " fill="#FD3C3A" transform="translate(164,171)"/>
<path d="M0 0 C0.66 0.33 1.32 0.66 2 1 C-0.64 3.64 -3.28 6.28 -6 9 C-6 6 -6 6 -3.5625 3.375 C-2.716875 2.59125 -1.87125 1.8075 -1 1 C-0.67 0.67 -0.34 0.34 0 0 Z " fill="#F73237" transform="translate(382,158)"/>
<path d="M0 0 C1.32 0.66 2.64 1.32 4 2 C2.35 3.65 0.7 5.3 -1 7 C-1.33 6.34 -1.66 5.68 -2 5 C-1.0625 2.375 -1.0625 2.375 0 0 Z " fill="#F63738" transform="translate(450,204)"/>
<path d="M0 0 C0.66 0.33 1.32 0.66 2 1 C-1.465 3.97 -1.465 3.97 -5 7 C-5.66 6.67 -6.32 6.34 -7 6 C-4.69 4.02 -2.38 2.04 0 0 Z " fill="#F92F35" transform="translate(516,158)"/>
<path d="" fill="#F07F6E" transform="translate(0,0)"/>
</svg>
